<svg width="100" height="63" viewBox="0 0 100 63" fill="none" xmlns="http://www.w3.org/2000/svg">
<mask id="path-1-inside-1_454_4227" fill="white">
<path fill-rule="evenodd" clip-rule="evenodd" d="M87.0966 29.6512C87.0966 29.761 87.096 29.8707 87.0949 29.9802C94.4579 31.5057 100 38.1538 100 46.124C100 55.2217 92.7789 62.5969 83.8712 62.5969C83.8711 62.5969 83.871 62.5969 83.8709 62.5969H18.6332C18.6049 62.5971 18.5766 62.5971 18.5483 62.5971C18.5199 62.5971 18.4916 62.5971 18.4633 62.5969H17.7423V62.5796C7.87226 62.1486 0 53.8399 0 43.6533C0 34.5448 6.29415 26.9378 14.6826 25.1215C15.6424 19.2782 20.6181 14.8257 26.6121 14.8257C28.6199 14.8257 30.5135 15.3252 32.1801 16.2093C36.979 6.58907 46.7683 0 58.0645 0C74.0985 0 87.0966 13.2753 87.0966 29.6512Z"/>
</mask>
<path fill-rule="evenodd" clip-rule="evenodd" d="M87.0966 29.6512C87.0966 29.761 87.096 29.8707 87.0949 29.9802C94.4579 31.5057 100 38.1538 100 46.124C100 55.2217 92.7789 62.5969 83.8712 62.5969C83.8711 62.5969 83.871 62.5969 83.8709 62.5969H18.6332C18.6049 62.5971 18.5766 62.5971 18.5483 62.5971C18.5199 62.5971 18.4916 62.5971 18.4633 62.5969H17.7423V62.5796C7.87226 62.1486 0 53.8399 0 43.6533C0 34.5448 6.29415 26.9378 14.6826 25.1215C15.6424 19.2782 20.6181 14.8257 26.6121 14.8257C28.6199 14.8257 30.5135 15.3252 32.1801 16.2093C36.979 6.58907 46.7683 0 58.0645 0C74.0985 0 87.0966 13.2753 87.0966 29.6512Z" fill="white"/>
<path d="M87.0949 29.9802L86.0949 29.9696L86.0862 30.7925L86.892 30.9594L87.0949 29.9802ZM18.6332 62.5969L18.6332 61.5969L18.6287 61.5969L18.6332 62.5969ZM18.4633 62.5969L18.4679 61.5969H18.4633V62.5969ZM17.7423 62.5969H16.7423V63.5969H17.7423V62.5969ZM17.7423 62.5796H18.7423V61.6223L17.7859 61.5805L17.7423 62.5796ZM14.6826 25.1215L14.8943 26.0989L15.5592 25.9549L15.6694 25.2836L14.6826 25.1215ZM32.1801 16.2093L31.7115 17.0927L32.6172 17.5732L33.0749 16.6557L32.1801 16.2093ZM88.0948 29.9909C88.096 29.8778 88.0966 29.7645 88.0966 29.6512H86.0966C86.0966 29.7575 86.096 29.8636 86.0949 29.9696L88.0948 29.9909ZM101 46.124C101 37.6846 95.1298 30.6236 87.2977 29.001L86.892 30.9594C93.7861 32.3877 99.0001 38.6231 99.0001 46.124H101ZM83.8712 63.5969C93.351 63.5969 101 55.754 101 46.124H99.0001C99.0001 54.6894 92.2069 61.5969 83.8712 61.5969V63.5969ZM83.8709 63.5969C83.9125 63.5969 83.9491 63.5943 83.9797 63.591C84.0101 63.5877 84.0358 63.5835 84.0553 63.5798C84.0746 63.5762 84.09 63.5727 84.0992 63.5705C84.1039 63.5694 84.1077 63.5685 84.11 63.5679C84.1111 63.5677 84.1121 63.5674 84.1127 63.5673C84.113 63.5672 84.1132 63.5671 84.1133 63.5671C84.1134 63.5671 84.1135 63.5671 84.1135 63.5671C84.1135 63.5671 84.1135 63.5671 84.1135 63.5671C84.1136 63.5671 84.1136 63.5671 84.1136 63.5671C84.1136 63.5671 84.1136 63.5671 84.1136 63.5671C84.1139 63.567 84.1121 63.5674 84.11 63.5679C84.1077 63.5685 84.1039 63.5694 84.0993 63.5705C84.0901 63.5727 84.0747 63.5762 84.0554 63.5798C84.0359 63.5834 84.0102 63.5876 83.9798 63.591C83.9493 63.5943 83.9127 63.5969 83.8712 63.5969V61.5969C83.8296 61.5969 83.7929 61.5995 83.7624 61.6028C83.732 61.6061 83.7063 61.6104 83.6868 61.614C83.6675 61.6176 83.652 61.6211 83.6429 61.6233C83.6382 61.6244 83.6344 61.6253 83.6321 61.6259C83.6309 61.6262 83.63 61.6264 83.6294 61.6265C83.6291 61.6266 83.6289 61.6267 83.6287 61.6267C83.6286 61.6267 83.6286 61.6267 83.6286 61.6268C83.6285 61.6268 83.6285 61.6268 83.6285 61.6268C83.6285 61.6268 83.6285 61.6268 83.6285 61.6268C83.6285 61.6268 83.6285 61.6268 83.6285 61.6268C83.6282 61.6268 83.63 61.6264 83.632 61.6259C83.6343 61.6253 83.6381 61.6244 83.6428 61.6233C83.6519 61.6212 83.6674 61.6177 83.6867 61.6141C83.7061 61.6104 83.7318 61.6062 83.7622 61.6029C83.7927 61.5995 83.8294 61.5969 83.8709 61.5969V63.5969ZM83.8709 61.5969H18.6332V63.5969H83.8709V61.5969ZM18.5483 63.5971C18.5781 63.5971 18.608 63.5971 18.6378 63.5969L18.6287 61.5969C18.6019 61.5971 18.5751 61.5971 18.5483 61.5971V63.5971ZM18.4587 63.5969C18.4886 63.5971 18.5184 63.5971 18.5483 63.5971V61.5971C18.5215 61.5971 18.4947 61.5971 18.4679 61.5969L18.4587 63.5969ZM18.4633 61.5969H17.7423V63.5969H18.4633V61.5969ZM18.7423 62.5969V62.5796H16.7423V62.5969H18.7423ZM-1 43.6533C-1 54.3588 7.27762 63.1235 17.6986 63.5786L17.7859 61.5805C8.46691 61.1736 1 53.3209 1 43.6533H-1ZM14.471 24.1441C5.61826 26.0609 -1 34.0784 -1 43.6533H1C1 35.0112 6.97005 27.8146 14.8943 26.0989L14.471 24.1441ZM26.6121 13.8257C20.1052 13.8257 14.7311 18.6561 13.6959 24.9594L15.6694 25.2836C16.5536 19.9003 21.1311 15.8257 26.6121 15.8257V13.8257ZM32.6487 15.3259C30.8419 14.3675 28.7879 13.8257 26.6121 13.8257V15.8257C28.4519 15.8257 30.1851 16.283 31.7115 17.0927L32.6487 15.3259ZM58.0645 -1C46.3666 -1 36.243 5.8242 31.2852 15.7629L33.0749 16.6557C37.715 7.35394 47.1701 1 58.0645 1V-1ZM88.0966 29.6512C88.0966 12.743 74.6706 -1 58.0645 -1V1C73.5264 1 86.0966 13.8076 86.0966 29.6512H88.0966Z" fill="#437C9D" fill-opacity="0.1" mask="url(#path-1-inside-1_454_4227)"/>
</svg>
