<svg width="20" height="20" viewBox="0 0 20 20" fill="none" xmlns="http://www.w3.org/2000/svg">
<path d="M14.1665 1.66652C15.2707 1.66982 16.3286 2.10989 17.1094 2.89064C17.8901 3.67138 18.3302 4.72935 18.3335 5.83348V14.1665C18.3302 15.2707 17.8901 16.3286 17.1094 17.1094C16.3286 17.8901 15.2707 18.3302 14.1665 18.3335H5.83348C4.72935 18.3302 3.67138 17.8901 2.89064 17.1094C2.10989 16.3286 1.66982 15.2707 1.66652 14.1665V5.83348C1.66982 4.72935 2.10989 3.67138 2.89064 2.89064C3.67138 2.10989 4.72935 1.66982 5.83348 1.66652H14.1665ZM14.1665 0H5.83348C2.625 0 0 2.625 0 5.83348V14.1665C0 17.375 2.625 20 5.83348 20H14.1665C17.375 20 20 17.375 20 14.1665V5.83348C20 2.625 17.375 0 14.1665 0Z" fill="#EADDD5"/>
<path d="M15.4163 5.83344C15.1691 5.83344 14.9274 5.76012 14.7218 5.62277C14.5163 5.48542 14.3561 5.2902 14.2614 5.06179C14.1668 4.83338 14.1421 4.58204 14.1903 4.33957C14.2385 4.09709 14.3576 3.87436 14.5324 3.69954C14.7072 3.52473 14.93 3.40568 15.1724 3.35745C15.4149 3.30921 15.6662 3.33397 15.8947 3.42858C16.1231 3.52319 16.3183 3.6834 16.4556 3.88897C16.593 4.09453 16.6663 4.3362 16.6663 4.58343C16.6667 4.74768 16.6346 4.91039 16.5719 5.0622C16.5092 5.21402 16.4171 5.35196 16.301 5.46811C16.1848 5.58425 16.0469 5.67631 15.8951 5.739C15.7433 5.8017 15.5805 5.83379 15.4163 5.83344Z" fill="#EADDD5"/>
<path d="M9.99999 6.66652C10.6593 6.66652 11.3038 6.86202 11.852 7.22831C12.4002 7.5946 12.8274 8.11522 13.0797 8.72433C13.332 9.33345 13.398 10.0037 13.2694 10.6503C13.1408 11.297 12.8233 11.8909 12.3571 12.3571C11.8909 12.8233 11.297 13.1408 10.6503 13.2694C10.0037 13.3981 9.33344 13.332 8.72433 13.0797C8.11521 12.8274 7.5946 12.4002 7.22831 11.852C6.86202 11.3038 6.66652 10.6593 6.66652 10C6.66746 9.1162 7.01897 8.26886 7.64391 7.64392C8.26886 7.01897 9.11619 6.66746 9.99999 6.66652ZM9.99999 5C9.01109 5 8.04439 5.29324 7.22215 5.84265C6.3999 6.39206 5.75904 7.17295 5.3806 8.08658C5.00217 9.00021 4.90315 10.0055 5.09608 10.9755C5.289 11.9454 5.76521 12.8363 6.46447 13.5355C7.16373 14.2348 8.05464 14.711 9.02454 14.9039C9.99445 15.0969 10.9998 14.9978 11.9134 14.6194C12.827 14.241 13.6079 13.6001 14.1573 12.7779C14.7067 11.9556 15 10.9889 15 10C15 8.67392 14.4732 7.40215 13.5355 6.46447C12.5978 5.52678 11.3261 5 9.99999 5Z" fill="#EADDD5"/>
</svg>
