<svg width="487" height="182" viewBox="0 0 487 182" fill="none" xmlns="http://www.w3.org/2000/svg">
<mask id="path-1-outside-1_472_34507" maskUnits="userSpaceOnUse" x="0" y="0" width="487" height="182" fill="black">
<rect fill="white" width="487" height="182"/>
<path d="M2 110.076V2H26.0052L86.4684 74.0506V2H110.024V110.076H86.0183L25.2551 37.7251V110.076H2Z"/>
<path d="M148.737 110.076C144.736 110.076 141.035 109.075 137.634 107.074C134.233 105.072 131.533 102.37 129.532 98.9681C127.532 95.5657 126.532 91.8631 126.532 87.8603V2H149.787V86.6594H211V2H234.555V87.8603C234.555 91.8631 233.505 95.5657 231.405 98.9681C229.404 102.37 226.704 105.072 223.303 107.074C220.002 109.075 216.351 110.076 212.35 110.076H148.737Z"/>
<path d="M251.378 110.076V24.2156C251.378 20.1127 252.378 16.4101 254.378 13.1078C256.379 9.70541 259.079 7.00351 262.48 5.00211C265.881 3.0007 269.582 2 273.583 2H337.046C341.147 2 344.848 3.0007 348.149 5.00211C351.55 7.00351 354.25 9.70541 356.251 13.1078C358.351 16.4101 359.401 20.1127 359.401 24.2156V110.076H335.846V75.2514H274.633V110.076H251.378ZM274.633 51.835H335.846V25.4164H274.633V51.835Z"/>
<path d="M390.899 110.076C386.898 110.076 383.197 109.075 379.796 107.074C376.396 105.072 373.695 102.37 371.695 98.9681C369.694 95.5657 368.694 91.8631 368.694 87.8603V73.9005H391.949V86.6594H453.162V2H476.717V87.8603C476.717 91.8631 475.667 95.5657 473.567 98.9681C471.566 102.37 468.866 105.072 465.465 107.074C462.164 109.075 458.513 110.076 454.513 110.076H390.899Z"/>
<path d="M318.744 171.819C322.145 171.819 324.62 171.244 326.171 170.093C327.721 168.942 328.496 167.316 328.496 165.215C328.496 163.964 328.221 162.888 327.671 161.987C327.171 161.087 326.421 160.286 325.42 159.586C324.47 158.835 323.295 158.16 321.895 157.559C320.494 156.909 318.894 156.283 317.094 155.683C315.293 155.032 313.543 154.332 311.842 153.581C310.192 152.781 308.717 151.805 307.416 150.654C306.166 149.504 305.141 148.128 304.341 146.526C303.591 144.925 303.216 142.999 303.216 140.747C303.216 136.044 304.841 132.367 308.092 129.715C311.342 127.013 315.768 125.662 321.37 125.662C324.62 125.662 327.496 126.037 329.996 126.788C332.547 127.488 334.547 128.264 335.998 129.114L333.072 136.77C331.372 135.819 329.496 135.093 327.446 134.593C325.445 134.093 323.37 133.843 321.219 133.843C318.669 133.843 316.668 134.368 315.218 135.419C313.818 136.469 313.118 137.945 313.118 139.847C313.118 140.998 313.343 141.998 313.793 142.849C314.293 143.649 314.968 144.375 315.818 145.025C316.718 145.676 317.744 146.276 318.894 146.827C320.094 147.377 321.395 147.902 322.795 148.403C325.245 149.303 327.421 150.229 329.321 151.18C331.272 152.08 332.897 153.181 334.197 154.482C335.548 155.733 336.573 157.234 337.273 158.985C337.973 160.686 338.323 162.763 338.323 165.215C338.323 169.918 336.648 173.57 333.297 176.172C329.996 178.724 325.145 180 318.744 180C316.593 180 314.618 179.85 312.818 179.55C311.067 179.299 309.492 178.974 308.092 178.574C306.741 178.174 305.566 177.773 304.566 177.373C303.566 176.923 302.765 176.523 302.165 176.172L304.941 168.442C306.291 169.192 308.117 169.943 310.417 170.693C312.718 171.444 315.493 171.819 318.744 171.819Z"/>
<path d="M345.753 129.264L354.83 127.763V139.622H368.783V147.202H354.83V163.188C354.83 166.34 355.33 168.592 356.33 169.943C357.33 171.294 359.031 171.969 361.431 171.969C363.081 171.969 364.532 171.794 365.782 171.444C367.082 171.094 368.108 170.769 368.858 170.468L370.358 177.673C369.308 178.124 367.933 178.574 366.232 179.024C364.532 179.525 362.531 179.775 360.231 179.775C357.43 179.775 355.08 179.4 353.179 178.649C351.329 177.899 349.854 176.823 348.753 175.422C347.653 173.971 346.878 172.245 346.428 170.243C345.978 168.192 345.753 165.865 345.753 163.263V129.264Z"/>
<path d="M412.161 159.21C412.161 162.313 411.711 165.14 410.811 167.691C409.91 170.243 408.635 172.42 406.985 174.221C405.334 176.022 403.334 177.423 400.983 178.424C398.683 179.425 396.132 179.925 393.332 179.925C390.531 179.925 387.981 179.425 385.68 178.424C383.38 177.423 381.404 176.022 379.754 174.221C378.103 172.42 376.803 170.243 375.853 167.691C374.953 165.14 374.503 162.313 374.503 159.21C374.503 156.108 374.953 153.306 375.853 150.804C376.803 148.253 378.103 146.076 379.754 144.275C381.454 142.474 383.455 141.098 385.755 140.147C388.056 139.146 390.581 138.646 393.332 138.646C396.082 138.646 398.608 139.146 400.908 140.147C403.259 141.098 405.259 142.474 406.91 144.275C408.56 146.076 409.835 148.253 410.736 150.804C411.686 153.306 412.161 156.108 412.161 159.21ZM402.859 159.21C402.859 155.308 402.009 152.23 400.308 149.979C398.658 147.677 396.332 146.526 393.332 146.526C390.331 146.526 387.981 147.677 386.28 149.979C384.63 152.23 383.805 155.308 383.805 159.21C383.805 163.163 384.63 166.29 386.28 168.592C387.981 170.894 390.331 172.044 393.332 172.044C396.332 172.044 398.658 170.894 400.308 168.592C402.009 166.29 402.859 163.163 402.859 159.21Z"/>
<path d="M443.867 147.802C443.117 147.552 442.067 147.302 440.716 147.052C439.416 146.752 437.891 146.602 436.14 146.602C435.14 146.602 434.065 146.702 432.915 146.902C431.814 147.102 431.039 147.277 430.589 147.427V178.874H421.512V141.498C423.263 140.847 425.438 140.247 428.039 139.697C430.689 139.096 433.615 138.796 436.816 138.796C437.416 138.796 438.116 138.846 438.916 138.946C439.716 138.996 440.516 139.096 441.316 139.246C442.117 139.346 442.892 139.497 443.642 139.697C444.392 139.847 444.992 139.997 445.442 140.147L443.867 147.802Z"/>
<path d="M449.592 159.436C449.592 155.983 450.092 152.956 451.093 150.354C452.143 147.752 453.518 145.601 455.219 143.9C456.919 142.148 458.869 140.848 461.07 139.997C463.27 139.096 465.521 138.646 467.821 138.646C473.222 138.646 477.423 140.322 480.424 143.674C483.475 147.027 485 152.03 485 158.685C485 159.185 484.975 159.761 484.925 160.411C484.925 161.012 484.9 161.562 484.85 162.062H458.969C459.219 165.215 460.32 167.666 462.27 169.418C464.27 171.119 467.146 171.969 470.897 171.969C473.097 171.969 475.098 171.769 476.898 171.369C478.749 170.969 480.199 170.543 481.249 170.093L482.449 177.523C481.949 177.773 481.249 178.049 480.349 178.349C479.499 178.599 478.499 178.824 477.348 179.024C476.248 179.274 475.048 179.475 473.748 179.625C472.447 179.775 471.122 179.85 469.772 179.85C466.321 179.85 463.32 179.35 460.77 178.349C458.219 177.298 456.119 175.872 454.468 174.071C452.818 172.22 451.593 170.068 450.793 167.616C449.992 165.115 449.592 162.388 449.592 159.436ZM475.923 155.383C475.923 154.132 475.748 152.956 475.398 151.855C475.048 150.704 474.523 149.729 473.823 148.928C473.172 148.078 472.347 147.427 471.347 146.977C470.397 146.476 469.247 146.226 467.896 146.226C466.496 146.226 465.271 146.501 464.22 147.052C463.17 147.552 462.27 148.228 461.52 149.078C460.82 149.929 460.27 150.905 459.87 152.005C459.469 153.106 459.194 154.232 459.044 155.383H475.923Z"/>
</mask>
<path d="M2 110.076V2H26.0052L86.4684 74.0506V2H110.024V110.076H86.0183L25.2551 37.7251V110.076H2Z" fill="#EADDD5"/>
<path d="M148.737 110.076C144.736 110.076 141.035 109.075 137.634 107.074C134.233 105.072 131.533 102.37 129.532 98.9681C127.532 95.5657 126.532 91.8631 126.532 87.8603V2H149.787V86.6594H211V2H234.555V87.8603C234.555 91.8631 233.505 95.5657 231.405 98.9681C229.404 102.37 226.704 105.072 223.303 107.074C220.002 109.075 216.351 110.076 212.35 110.076H148.737Z" fill="#EADDD5"/>
<path d="M251.378 110.076V24.2156C251.378 20.1127 252.378 16.4101 254.378 13.1078C256.379 9.70541 259.079 7.00351 262.48 5.00211C265.881 3.0007 269.582 2 273.583 2H337.046C341.147 2 344.848 3.0007 348.149 5.00211C351.55 7.00351 354.25 9.70541 356.251 13.1078C358.351 16.4101 359.401 20.1127 359.401 24.2156V110.076H335.846V75.2514H274.633V110.076H251.378ZM274.633 51.835H335.846V25.4164H274.633V51.835Z" fill="#EADDD5"/>
<path d="M390.899 110.076C386.898 110.076 383.197 109.075 379.796 107.074C376.396 105.072 373.695 102.37 371.695 98.9681C369.694 95.5657 368.694 91.8631 368.694 87.8603V73.9005H391.949V86.6594H453.162V2H476.717V87.8603C476.717 91.8631 475.667 95.5657 473.567 98.9681C471.566 102.37 468.866 105.072 465.465 107.074C462.164 109.075 458.513 110.076 454.513 110.076H390.899Z" fill="#EADDD5"/>
<path d="M318.744 171.819C322.145 171.819 324.62 171.244 326.171 170.093C327.721 168.942 328.496 167.316 328.496 165.215C328.496 163.964 328.221 162.888 327.671 161.987C327.171 161.087 326.421 160.286 325.42 159.586C324.47 158.835 323.295 158.16 321.895 157.559C320.494 156.909 318.894 156.283 317.094 155.683C315.293 155.032 313.543 154.332 311.842 153.581C310.192 152.781 308.717 151.805 307.416 150.654C306.166 149.504 305.141 148.128 304.341 146.526C303.591 144.925 303.216 142.999 303.216 140.747C303.216 136.044 304.841 132.367 308.092 129.715C311.342 127.013 315.768 125.662 321.37 125.662C324.62 125.662 327.496 126.037 329.996 126.788C332.547 127.488 334.547 128.264 335.998 129.114L333.072 136.77C331.372 135.819 329.496 135.093 327.446 134.593C325.445 134.093 323.37 133.843 321.219 133.843C318.669 133.843 316.668 134.368 315.218 135.419C313.818 136.469 313.118 137.945 313.118 139.847C313.118 140.998 313.343 141.998 313.793 142.849C314.293 143.649 314.968 144.375 315.818 145.025C316.718 145.676 317.744 146.276 318.894 146.827C320.094 147.377 321.395 147.902 322.795 148.403C325.245 149.303 327.421 150.229 329.321 151.18C331.272 152.08 332.897 153.181 334.197 154.482C335.548 155.733 336.573 157.234 337.273 158.985C337.973 160.686 338.323 162.763 338.323 165.215C338.323 169.918 336.648 173.57 333.297 176.172C329.996 178.724 325.145 180 318.744 180C316.593 180 314.618 179.85 312.818 179.55C311.067 179.299 309.492 178.974 308.092 178.574C306.741 178.174 305.566 177.773 304.566 177.373C303.566 176.923 302.765 176.523 302.165 176.172L304.941 168.442C306.291 169.192 308.117 169.943 310.417 170.693C312.718 171.444 315.493 171.819 318.744 171.819Z" fill="#EADDD5"/>
<path d="M345.753 129.264L354.83 127.763V139.622H368.783V147.202H354.83V163.188C354.83 166.34 355.33 168.592 356.33 169.943C357.33 171.294 359.031 171.969 361.431 171.969C363.081 171.969 364.532 171.794 365.782 171.444C367.082 171.094 368.108 170.769 368.858 170.468L370.358 177.673C369.308 178.124 367.933 178.574 366.232 179.024C364.532 179.525 362.531 179.775 360.231 179.775C357.43 179.775 355.08 179.4 353.179 178.649C351.329 177.899 349.854 176.823 348.753 175.422C347.653 173.971 346.878 172.245 346.428 170.243C345.978 168.192 345.753 165.865 345.753 163.263V129.264Z" fill="#EADDD5"/>
<path d="M412.161 159.21C412.161 162.313 411.711 165.14 410.811 167.691C409.91 170.243 408.635 172.42 406.985 174.221C405.334 176.022 403.334 177.423 400.983 178.424C398.683 179.425 396.132 179.925 393.332 179.925C390.531 179.925 387.981 179.425 385.68 178.424C383.38 177.423 381.404 176.022 379.754 174.221C378.103 172.42 376.803 170.243 375.853 167.691C374.953 165.14 374.503 162.313 374.503 159.21C374.503 156.108 374.953 153.306 375.853 150.804C376.803 148.253 378.103 146.076 379.754 144.275C381.454 142.474 383.455 141.098 385.755 140.147C388.056 139.146 390.581 138.646 393.332 138.646C396.082 138.646 398.608 139.146 400.908 140.147C403.259 141.098 405.259 142.474 406.91 144.275C408.56 146.076 409.835 148.253 410.736 150.804C411.686 153.306 412.161 156.108 412.161 159.21ZM402.859 159.21C402.859 155.308 402.009 152.23 400.308 149.979C398.658 147.677 396.332 146.526 393.332 146.526C390.331 146.526 387.981 147.677 386.28 149.979C384.63 152.23 383.805 155.308 383.805 159.21C383.805 163.163 384.63 166.29 386.28 168.592C387.981 170.894 390.331 172.044 393.332 172.044C396.332 172.044 398.658 170.894 400.308 168.592C402.009 166.29 402.859 163.163 402.859 159.21Z" fill="#EADDD5"/>
<path d="M443.867 147.802C443.117 147.552 442.067 147.302 440.716 147.052C439.416 146.752 437.891 146.602 436.14 146.602C435.14 146.602 434.065 146.702 432.915 146.902C431.814 147.102 431.039 147.277 430.589 147.427V178.874H421.512V141.498C423.263 140.847 425.438 140.247 428.039 139.697C430.689 139.096 433.615 138.796 436.816 138.796C437.416 138.796 438.116 138.846 438.916 138.946C439.716 138.996 440.516 139.096 441.316 139.246C442.117 139.346 442.892 139.497 443.642 139.697C444.392 139.847 444.992 139.997 445.442 140.147L443.867 147.802Z" fill="#EADDD5"/>
<path d="M449.592 159.436C449.592 155.983 450.092 152.956 451.093 150.354C452.143 147.752 453.518 145.601 455.219 143.9C456.919 142.148 458.869 140.848 461.07 139.997C463.27 139.096 465.521 138.646 467.821 138.646C473.222 138.646 477.423 140.322 480.424 143.674C483.475 147.027 485 152.03 485 158.685C485 159.185 484.975 159.761 484.925 160.411C484.925 161.012 484.9 161.562 484.85 162.062H458.969C459.219 165.215 460.32 167.666 462.27 169.418C464.27 171.119 467.146 171.969 470.897 171.969C473.097 171.969 475.098 171.769 476.898 171.369C478.749 170.969 480.199 170.543 481.249 170.093L482.449 177.523C481.949 177.773 481.249 178.049 480.349 178.349C479.499 178.599 478.499 178.824 477.348 179.024C476.248 179.274 475.048 179.475 473.748 179.625C472.447 179.775 471.122 179.85 469.772 179.85C466.321 179.85 463.32 179.35 460.77 178.349C458.219 177.298 456.119 175.872 454.468 174.071C452.818 172.22 451.593 170.068 450.793 167.616C449.992 165.115 449.592 162.388 449.592 159.436ZM475.923 155.383C475.923 154.132 475.748 152.956 475.398 151.855C475.048 150.704 474.523 149.729 473.823 148.928C473.172 148.078 472.347 147.427 471.347 146.977C470.397 146.476 469.247 146.226 467.896 146.226C466.496 146.226 465.271 146.501 464.22 147.052C463.17 147.552 462.27 148.228 461.52 149.078C460.82 149.929 460.27 150.905 459.87 152.005C459.469 153.106 459.194 154.232 459.044 155.383H475.923Z" fill="#EADDD5"/>
<path d="M2 110.076V2H26.0052L86.4684 74.0506V2H110.024V110.076H86.0183L25.2551 37.7251V110.076H2Z" stroke="#DCAFA8" stroke-width="4" mask="url(#path-1-outside-1_472_34507)"/>
<path d="M148.737 110.076C144.736 110.076 141.035 109.075 137.634 107.074C134.233 105.072 131.533 102.37 129.532 98.9681C127.532 95.5657 126.532 91.8631 126.532 87.8603V2H149.787V86.6594H211V2H234.555V87.8603C234.555 91.8631 233.505 95.5657 231.405 98.9681C229.404 102.37 226.704 105.072 223.303 107.074C220.002 109.075 216.351 110.076 212.35 110.076H148.737Z" stroke="#DCAFA8" stroke-width="4" mask="url(#path-1-outside-1_472_34507)"/>
<path d="M251.378 110.076V24.2156C251.378 20.1127 252.378 16.4101 254.378 13.1078C256.379 9.70541 259.079 7.00351 262.48 5.00211C265.881 3.0007 269.582 2 273.583 2H337.046C341.147 2 344.848 3.0007 348.149 5.00211C351.55 7.00351 354.25 9.70541 356.251 13.1078C358.351 16.4101 359.401 20.1127 359.401 24.2156V110.076H335.846V75.2514H274.633V110.076H251.378ZM274.633 51.835H335.846V25.4164H274.633V51.835Z" stroke="#DCAFA8" stroke-width="4" mask="url(#path-1-outside-1_472_34507)"/>
<path d="M390.899 110.076C386.898 110.076 383.197 109.075 379.796 107.074C376.396 105.072 373.695 102.37 371.695 98.9681C369.694 95.5657 368.694 91.8631 368.694 87.8603V73.9005H391.949V86.6594H453.162V2H476.717V87.8603C476.717 91.8631 475.667 95.5657 473.567 98.9681C471.566 102.37 468.866 105.072 465.465 107.074C462.164 109.075 458.513 110.076 454.513 110.076H390.899Z" stroke="#DCAFA8" stroke-width="4" mask="url(#path-1-outside-1_472_34507)"/>
<path d="M318.744 171.819C322.145 171.819 324.62 171.244 326.171 170.093C327.721 168.942 328.496 167.316 328.496 165.215C328.496 163.964 328.221 162.888 327.671 161.987C327.171 161.087 326.421 160.286 325.42 159.586C324.47 158.835 323.295 158.16 321.895 157.559C320.494 156.909 318.894 156.283 317.094 155.683C315.293 155.032 313.543 154.332 311.842 153.581C310.192 152.781 308.717 151.805 307.416 150.654C306.166 149.504 305.141 148.128 304.341 146.526C303.591 144.925 303.216 142.999 303.216 140.747C303.216 136.044 304.841 132.367 308.092 129.715C311.342 127.013 315.768 125.662 321.37 125.662C324.62 125.662 327.496 126.037 329.996 126.788C332.547 127.488 334.547 128.264 335.998 129.114L333.072 136.77C331.372 135.819 329.496 135.093 327.446 134.593C325.445 134.093 323.37 133.843 321.219 133.843C318.669 133.843 316.668 134.368 315.218 135.419C313.818 136.469 313.118 137.945 313.118 139.847C313.118 140.998 313.343 141.998 313.793 142.849C314.293 143.649 314.968 144.375 315.818 145.025C316.718 145.676 317.744 146.276 318.894 146.827C320.094 147.377 321.395 147.902 322.795 148.403C325.245 149.303 327.421 150.229 329.321 151.18C331.272 152.08 332.897 153.181 334.197 154.482C335.548 155.733 336.573 157.234 337.273 158.985C337.973 160.686 338.323 162.763 338.323 165.215C338.323 169.918 336.648 173.57 333.297 176.172C329.996 178.724 325.145 180 318.744 180C316.593 180 314.618 179.85 312.818 179.55C311.067 179.299 309.492 178.974 308.092 178.574C306.741 178.174 305.566 177.773 304.566 177.373C303.566 176.923 302.765 176.523 302.165 176.172L304.941 168.442C306.291 169.192 308.117 169.943 310.417 170.693C312.718 171.444 315.493 171.819 318.744 171.819Z" stroke="#DCAFA8" stroke-width="4" mask="url(#path-1-outside-1_472_34507)"/>
<path d="M345.753 129.264L354.83 127.763V139.622H368.783V147.202H354.83V163.188C354.83 166.34 355.33 168.592 356.33 169.943C357.33 171.294 359.031 171.969 361.431 171.969C363.081 171.969 364.532 171.794 365.782 171.444C367.082 171.094 368.108 170.769 368.858 170.468L370.358 177.673C369.308 178.124 367.933 178.574 366.232 179.024C364.532 179.525 362.531 179.775 360.231 179.775C357.43 179.775 355.08 179.4 353.179 178.649C351.329 177.899 349.854 176.823 348.753 175.422C347.653 173.971 346.878 172.245 346.428 170.243C345.978 168.192 345.753 165.865 345.753 163.263V129.264Z" stroke="#DCAFA8" stroke-width="4" mask="url(#path-1-outside-1_472_34507)"/>
<path d="M412.161 159.21C412.161 162.313 411.711 165.14 410.811 167.691C409.91 170.243 408.635 172.42 406.985 174.221C405.334 176.022 403.334 177.423 400.983 178.424C398.683 179.425 396.132 179.925 393.332 179.925C390.531 179.925 387.981 179.425 385.68 178.424C383.38 177.423 381.404 176.022 379.754 174.221C378.103 172.42 376.803 170.243 375.853 167.691C374.953 165.14 374.503 162.313 374.503 159.21C374.503 156.108 374.953 153.306 375.853 150.804C376.803 148.253 378.103 146.076 379.754 144.275C381.454 142.474 383.455 141.098 385.755 140.147C388.056 139.146 390.581 138.646 393.332 138.646C396.082 138.646 398.608 139.146 400.908 140.147C403.259 141.098 405.259 142.474 406.91 144.275C408.56 146.076 409.835 148.253 410.736 150.804C411.686 153.306 412.161 156.108 412.161 159.21ZM402.859 159.21C402.859 155.308 402.009 152.23 400.308 149.979C398.658 147.677 396.332 146.526 393.332 146.526C390.331 146.526 387.981 147.677 386.28 149.979C384.63 152.23 383.805 155.308 383.805 159.21C383.805 163.163 384.63 166.29 386.28 168.592C387.981 170.894 390.331 172.044 393.332 172.044C396.332 172.044 398.658 170.894 400.308 168.592C402.009 166.29 402.859 163.163 402.859 159.21Z" stroke="#DCAFA8" stroke-width="4" mask="url(#path-1-outside-1_472_34507)"/>
<path d="M443.867 147.802C443.117 147.552 442.067 147.302 440.716 147.052C439.416 146.752 437.891 146.602 436.14 146.602C435.14 146.602 434.065 146.702 432.915 146.902C431.814 147.102 431.039 147.277 430.589 147.427V178.874H421.512V141.498C423.263 140.847 425.438 140.247 428.039 139.697C430.689 139.096 433.615 138.796 436.816 138.796C437.416 138.796 438.116 138.846 438.916 138.946C439.716 138.996 440.516 139.096 441.316 139.246C442.117 139.346 442.892 139.497 443.642 139.697C444.392 139.847 444.992 139.997 445.442 140.147L443.867 147.802Z" stroke="#DCAFA8" stroke-width="4" mask="url(#path-1-outside-1_472_34507)"/>
<path d="M449.592 159.436C449.592 155.983 450.092 152.956 451.093 150.354C452.143 147.752 453.518 145.601 455.219 143.9C456.919 142.148 458.869 140.848 461.07 139.997C463.27 139.096 465.521 138.646 467.821 138.646C473.222 138.646 477.423 140.322 480.424 143.674C483.475 147.027 485 152.03 485 158.685C485 159.185 484.975 159.761 484.925 160.411C484.925 161.012 484.9 161.562 484.85 162.062H458.969C459.219 165.215 460.32 167.666 462.27 169.418C464.27 171.119 467.146 171.969 470.897 171.969C473.097 171.969 475.098 171.769 476.898 171.369C478.749 170.969 480.199 170.543 481.249 170.093L482.449 177.523C481.949 177.773 481.249 178.049 480.349 178.349C479.499 178.599 478.499 178.824 477.348 179.024C476.248 179.274 475.048 179.475 473.748 179.625C472.447 179.775 471.122 179.85 469.772 179.85C466.321 179.85 463.32 179.35 460.77 178.349C458.219 177.298 456.119 175.872 454.468 174.071C452.818 172.22 451.593 170.068 450.793 167.616C449.992 165.115 449.592 162.388 449.592 159.436ZM475.923 155.383C475.923 154.132 475.748 152.956 475.398 151.855C475.048 150.704 474.523 149.729 473.823 148.928C473.172 148.078 472.347 147.427 471.347 146.977C470.397 146.476 469.247 146.226 467.896 146.226C466.496 146.226 465.271 146.501 464.22 147.052C463.17 147.552 462.27 148.228 461.52 149.078C460.82 149.929 460.27 150.905 459.87 152.005C459.469 153.106 459.194 154.232 459.044 155.383H475.923Z" stroke="#DCAFA8" stroke-width="4" mask="url(#path-1-outside-1_472_34507)"/>
</svg>
