<svg width="22" height="22" viewBox="0 0 22 22" fill="none" xmlns="http://www.w3.org/2000/svg">
<path d="M4.76736 3.72163C4.42962 3.48184 3.96143 3.56124 3.72163 3.89899C3.48184 4.23673 3.56124 4.70492 3.89899 4.94471L4.76736 3.72163ZM18.101 4.94471C18.4388 4.70492 18.5182 4.23673 18.2784 3.89899C18.0386 3.56124 17.5704 3.48184 17.2326 3.72163L18.101 4.94471ZM17.2326 18.2784C17.5704 18.5182 18.0386 18.4388 18.2784 18.101C18.5182 17.7633 18.4388 17.2951 18.101 17.0553L17.2326 18.2784ZM3.89899 17.0553C3.56124 17.2951 3.48184 17.7633 3.72163 18.101C3.96143 18.4388 4.42962 18.5182 4.76736 18.2784L3.89899 17.0553ZM11 0.25C5.06319 0.25 0.25 5.06319 0.25 11H1.75C1.75 5.89162 5.89162 1.75 11 1.75V0.25ZM0.25 11C0.25 16.9368 5.06319 21.75 11 21.75V20.25C5.89162 20.25 1.75 16.1084 1.75 11H0.25ZM11 21.75C16.9368 21.75 21.75 16.9368 21.75 11H20.25C20.25 16.1084 16.1084 20.25 11 20.25V21.75ZM21.75 11C21.75 5.06319 16.9368 0.25 11 0.25V1.75C16.1084 1.75 20.25 5.89162 20.25 11H21.75ZM11 0.25C9.19069 0.25 7.63979 1.67315 6.58901 3.56483C5.51415 5.49986 4.83317 8.12822 4.83317 11H6.33317C6.33317 8.34918 6.96469 5.97754 7.90029 4.29322C8.85997 2.56555 10.0175 1.75 11 1.75V0.25ZM4.83317 11C4.83317 13.8718 5.51415 16.5001 6.58901 18.4352C7.63979 20.3268 9.19069 21.75 11 21.75V20.25C10.0175 20.25 8.85997 19.4344 7.90029 17.7068C6.96469 16.0225 6.33317 13.6508 6.33317 11H4.83317ZM11 21.75C12.8093 21.75 14.3602 20.3268 15.411 18.4352C16.4858 16.5001 17.1668 13.8718 17.1668 11H15.6668C15.6668 13.6508 15.0353 16.0225 14.0997 17.7068C13.14 19.4344 11.9825 20.25 11 20.25V21.75ZM17.1668 11C17.1668 8.12822 16.4858 5.49986 15.411 3.56483C14.3602 1.67315 12.8093 0.25 11 0.25V1.75C11.9825 1.75 13.14 2.56555 14.0997 4.29322C15.0353 5.97754 15.6668 8.34918 15.6668 11H17.1668ZM3.89899 4.94471C5.86449 6.3402 8.33069 7.16683 11 7.16683V5.66683C8.64143 5.66683 6.47878 4.93672 4.76736 3.72163L3.89899 4.94471ZM11 7.16683C13.6693 7.16683 16.1355 6.3402 18.101 4.94471L17.2326 3.72163C15.5212 4.93672 13.3586 5.66683 11 5.66683V7.16683ZM18.101 17.0553C16.1355 15.6598 13.6693 14.8332 11 14.8332V16.3332C13.3586 16.3332 15.5212 17.0633 17.2326 18.2784L18.101 17.0553ZM11 14.8332C8.33069 14.8332 5.86449 15.6598 3.89899 17.0553L4.76736 18.2784C6.47878 17.0633 8.64143 16.3332 11 16.3332V14.8332ZM10.25 1V21H11.75V1H10.25ZM21 10.25H1V11.75H21V10.25Z" fill="#EADDD5"/>
</svg>
